<?xml version="1.0" encoding="utf-8"?>
<!-- Generator: Adobe Illustrator 18.1.1, SVG Export Plug-In . SVG Version: 6.00 Build 0)  -->
<svg version="1.1" id="Layer_1" xmlns="http://www.w3.org/2000/svg" xmlns:xlink="http://www.w3.org/1999/xlink" x="0px" y="0px"
	 viewBox="0 0 217.5 217.5" enable-background="new 0 0 217.5 217.5" xml:space="preserve">
<path fill="#2B3A49" d="M210.1,210.1c-4.5,4.5-11.9,4.5-16.4,0L30.5,38.5c-2.6-2.6-2.9-6.5-0.7-8.7c2.2-2.2,6.1-1.9,8.7,0.7
	l171.6,163.2C214.6,198.2,214.6,205.6,210.1,210.1"/>
<path fill="#2B3A49" d="M79.9,4C38,4,4,38,4,79.9s34,75.9,75.9,75.9c41.8,0,75.9-34,75.9-75.9S121.7,4,79.9,4 M79.9,140.5
	c-33.5,0-60.7-27.2-60.7-60.7s27.2-60.7,60.7-60.7c33.5,0,60.7,27.2,60.7,60.7S113.4,140.5,79.9,140.5"/>
<path fill="#A7D8DC" d="M79.9,16.5c-35,0-63.3,28.3-63.3,63.3s28.3,63.3,63.3,63.3c35,0,63.3-28.3,63.3-63.3S114.8,16.5,79.9,16.5"
	/>
<path fill="#F9F9F9" d="M79.5,123.3c-24,0-43.5-19.5-43.5-43.5s19.5-43.5,43.5-43.5S123,55.9,123,79.9S103.4,123.3,79.5,123.3z
	 M79.5,46c-18.7,0-33.9,15.2-33.9,33.9s15.2,33.9,33.9,33.9c18.7,0,33.9-15.2,33.9-33.9S98.1,46,79.5,46z"/>
<rect x="40.1" y="76" transform="matrix(0.7076 0.7066 -0.7066 0.7076 80.4107 -32.613)" fill="#F9F9F9" width="79" height="9.6"/>
</svg>
