<?xml version="1.0" encoding="utf-8"?>
<!-- Generator: Adobe Illustrator 18.1.1, SVG Export Plug-In . SVG Version: 6.00 Build 0)  -->
<svg version="1.1" id="Layer_1" xmlns="http://www.w3.org/2000/svg" xmlns:xlink="http://www.w3.org/1999/xlink" x="0px" y="0px"
	 viewBox="0 269.2 566.9 28.4" enable-background="new 0 269.2 566.9 28.4" xml:space="preserve">
<path fill="#FFFFFF" d="M566.3,286.1h0.2v-0.3h-0.2v-0.2h-0.2v-0.5l-0.1,0l0-0.1l-0.3-0.1l0-0.1h0.2v-0.1l0.1,0l0-0.1l0.1,0
	l-0.1-0.9c0,0,0.4-0.5,0.4-0.5s-0.3-0.3-0.3-0.3l-0.2,0.2l-0.3-0.5h-0.2l-0.2-0.2l0.1-0.1l0-0.2l0.2,0l-0.2-0.1l0.2-0.1l-0.3,0
	l0.2-0.2l-0.3,0.1l0-0.3l-0.1,0.2h-0.1l-0.2-0.1l0.1,0.2l-0.2,0v-0.2l0,0l0-0.6l-0.1-0.1v0h0.2v-0.2l-0.1-0.1l-0.1,0l0-0.1l0.2,0
	v-0.1l-0.1-0.1V280l-0.1-0.1l0.1-0.2v-0.1l-0.3,0.4v0.2l0.1,0.1l0,0h-0.1l-0.1,0.1v0.2l0.1,0.1v0.2h0.1v0.2l-0.2,0.8v0.3l0.1,0.1
	v0.4l0.1,0.2l-0.1,0.5v0.2h0.1l0,0.1l0,0.4h0.1v0.4l-0.1,0.3v0.9h-0.2v0.2h-0.2l0.1,0.3h0.2l-0.2,0.4c0,0-0.1-0.7-0.9-1.2
	c-0.1,0-0.2-0.1-0.2-0.1c-0.4-0.5-1.1-0.4-1.1-0.4v-0.4l-0.1,0.1c-0.1-0.2-0.1-0.3-0.2-0.3v-2.7h-1v2h-0.1v0.8l0,0h-0.3v-7.7l-1.2,0
	v6.2c-0.1,0-0.2,0.1-0.3,0.1v-5.6l-0.9-0.9l-1.1,0.9l0,4.8c-0.2,0-0.3,0-0.4,0.1v-9.1h-0.6l0-0.1h0.5l0.1-0.1v-0.1l-0.1-0.1l-0.5,0
	l-0.1-3.5l-0.1,3.5H555l-0.1,0.1l0,0.1l0.1,0.1h0.5v0.1h-0.7v8.7l-0.3-0.2l-0.4,0.5v0.6h-0.1v1.4h-0.1v0.6h-0.3v-3.1h-0.3v-1h-0.6v1
	h-0.1v0.9h-0.9v0.1c-0.1,0-0.2,0-0.2,0v0.1h-0.1v-0.6h-0.2v-0.3h-1.1v1.5h-0.4v1.2h-0.2V284h-0.3v-0.1h-0.2v-0.2H549v0.6h-0.1v-1
	l-0.3-1.7l-0.3,1.7v1l-0.1,0v-3.1h-1.5v0.6h-0.2v1.3h0l-0.1-0.5l-0.1,0.5h-0.4v-1.2h-0.3v0.2h-0.8v-0.2h-0.4v0.3h-0.3v-0.2h-0.3v1
	c-0.1,0-0.3,0-0.3,0c0,0.1,0,0.6,0,0.6h-0.2v0.7H543v-1.1l-0.2-0.4l-0.2,0.5v0.8h-0.2v-2.8h-1.1v0.5h-0.1v1h-0.4v-1.4h-0.7v-1.1
	h-0.9v0.5h-0.8v2.2h-0.1v0.9l-0.1,0.1V277h-0.2v-1.1H538v-0.5h-0.2v-0.2h-0.2V275l-0.1,0v-0.1l-0.1,0c0,0,0-1.1,0-1.3
	c0-0.2-0.2-0.3-0.2-0.3v-0.6h-0.1v0.6c-0.3,0-0.3,0.2-0.3,0.2v1.4h-0.2v0.2h-0.2v0.2l-0.2,0v0.4l-0.1,0v1.1h-0.1v5.7l-0.1,0.1v0.1h0
	v0.3h-0.2v-3.2h-0.9v3.5h0l-0.4-0.4v-2.4v-0.4h-0.3v-0.2h-0.7v-1.6h-0.6v3.4h-0.6V279h-0.7v4.3h-0.2V283l-0.3,0v-0.4h0v-0.2h-0.3
	v-0.2h-0.1v-1.9h-1v1.8h-0.2v-1.8h-0.9v1.5h-0.3v0.6l-0.1-0.1l-0.1,0.1v0.2l-0.1,0v1.3h-0.2V280l-0.1-0.1v-0.5l-0.2-0.2v-1l-0.2-0.2
	v-0.3l0-0.1v-0.3l-0.1-0.1v-0.3l-0.1,0v-0.3l0,0v-0.2l-0.1-0.1V276l-0.1-0.2v-1.5v0l0,1.5h-0.1v0.3l-0.1,0.3v0.3l-0.1,0.1v0.3h-0.1
	v0.3l-0.1,0.1v0.3l-0.1,0.1v0.3h-0.1v1H526v0.3h-0.2v4.4h-0.2v-0.2h-0.1v-2.2h-1.8v2.7c-0.1,0-0.3,0-0.3,0v0.4l-0.1,0.1v-1.3h-0.5
	v1.4h-0.3V283h-1.2v2.4H521v-1.2h-0.7v-0.7h-0.6v0.7h-0.5v1.6h-0.9v-1.3h-0.8l0-4.4h-1.7v-0.7h-1.5v0.3h-0.3l0,4.3h-1.4l0-3.8h-0.9
	v0.6h-1.1v1.2H510v-1.5h-1.4V280h-1.5l0,4.2h-0.5l0-3.4h-0.9l0-4.4h-1.7l0,4.3h-0.8l-0.3,0.4h-0.5v0.8h-0.4l0,2.1h-0.4v1.3H501v-1.4
	h-0.7v-0.6h-0.7v0.5l-2.6,0v0.5h-0.8v0.8h-0.5v-1.5h-0.7v-1.7h-0.3l0-2.5h-1.6l0,4.1h-0.2v1h-0.3v0.4h-0.6l0-3H492v-1.1h-0.3v-1
	l-2.1,0l0,3.6h-0.4l0-2.5h-0.3v-0.4h-0.8v0.5H488l0,2.8h-0.4v0.9h-0.2l0-3.2H487v-0.6h-0.9v-0.5h-0.7v-0.5h-1.1v0.3h-0.5v0.5h-1.1
	v0.7h-0.5v-1.1h-0.3v-0.3h-0.7v-0.5h-1.1v0.5h-0.5v0.5h-0.5v-1h-1.4v-0.5h-1.1v0.7h-1l0-2.8h-0.9v-0.5h-1.1h-0.8v0.9h-0.4v4.7h-0.4
	v-1.3h-0.7v-0.7h-1.6v0.7h-0.7l0-2h-0.6v-0.8l-2.4,0l0,2.5h-1.6l0,3.1l-2.2,0l0.1-11.6h-0.9v-0.3h-1.4v0.7h-0.2l-0.1,11h-1.6l0-3
	h-0.6v-0.7l-2.4,0v1.6h-0.4l0,4.7h-1.1v-1.9H453v-0.5h-0.7v0.5h-0.5l0,1.9H451l0-6.2h-0.5v-0.5h-1.8v0.4h-0.3v-0.6h-1.2l0,6.9h-2.3
	l0-4.8h-0.5v-0.4h-1l-0.3,0.4h-0.3v4.3h-0.7v0.8h-0.5l0-4.1h-0.6v-0.4h-0.7v-0.5H440v1.1h-0.4l0,3.9h-0.8l0-8.4H438v-0.9l-2.6,0v1
	h-0.5v1.6h-0.3l0,6.4l-2.4,0v-1.7h-0.7v-0.5h-1.1v0.5h-0.4l0,2.2h-0.6l0-3h-0.9v-0.6h-1.1v-0.5h-1v0.6H426l0,3.4h-1.4V284l-2.6,0
	l0,2h-0.9l0-3l-2.7,0v1H418v-0.6h-0.5v0.6h-0.5l0-3h-0.5v-0.4h-1.2v0.6h-0.4l0,5.1h-0.6l0-5.7h-0.6v-0.5h-0.9v0.5h-0.4l0,5.7l-3.4,0
	l0-4h-0.9v-0.5h-1.7v0.5h-0.7l0,3.9h-0.6v-0.5h-0.5l0-2.8h-0.5v-0.5h-0.9v0.9h-0.3v-0.5h-0.7v0.4h-0.7l0,2.3h-0.9v1h-0.8v-0.9h-0.6
	v-0.4H398v-0.5h-0.7v0.5h-0.7v0.9h-1.3v-0.9H395v-0.4h-0.5v0.3h-0.4V284h-0.4v-4h-0.6v0.7h-0.5v-0.4H392v0.4h-0.6v2.4l-0.2,0.2v2.9
	h-0.4v-6.4h-0.6v-2.2h-0.3v0.2h-0.4v-0.6h-0.2v0.7h-0.6v3.2h-0.3v5.2h-0.7v-2.9h-0.4v-2.7h-1.8v4h-0.8v1.1h-0.4v0.4h-0.6v-0.6h-0.3
	v-0.4h-0.6v-0.3h-1.2V284h-0.5v-0.3h-1v0.4h-0.3v1.6h-1.4v-0.9h-0.7v0.4h-0.7v-0.3h-2.2v-1.2h-0.8v-0.3h-0.8v-0.2h-0.4v-2h-0.2v-1
	h-0.4v-0.3h-0.3v0.3h-1.2v3.5h-0.5v-1.5h-0.6v-0.8h-0.9v0.8h-0.3V282h-0.6v-0.5h-0.3v-1.2h-0.3v1.3h-0.2v0.5H367v2.6h-0.4V284h-0.5
	v-1h-0.4v-1.6h-0.5v-0.3h-0.5v-0.4h-0.3v0.3h-0.3V280h-0.5v1.1h-0.5v1.3h-0.3v1.5h-0.9v1.3l-0.2,0.2v0.3h-0.3v-0.3h-0.3v-1.6H361
	v-0.4h-0.6v0.3h-0.3v0.4h-0.6v-0.4h-1v-1h-1.4v2.4h-0.3v0.4h-1.6v0.3h-0.4v-1.3h-0.7v1.7h-0.8v0.2h-0.5v-0.5h-0.5v-0.6h-1.7v0.4
	h-0.3v0.3h-0.3v-1.6h-0.7v0.3h-1.1v0.4h-0.4v-0.5h-1.7v0.9h-0.9v-1.4h-0.5v-0.4h-0.3v0.4h-1v-0.3h-0.3v0.4h-0.4v1.6h-0.4v-1.7h-0.3
	v-0.3h-0.4v0.4h-0.2v1h-0.2v1.3h-0.3v-0.7h-0.3v-4.8h-0.3v-0.5h-2.2v0.6h-0.2v-1.9h-0.9v-0.3h-0.6v0.4h-0.3v3.9h-0.5v-1.5h-0.2v-1.1
	l-0.1-0.1v-1.9h-0.3v-0.9h-1v0.8h-0.3v0.4h-0.2v2h-0.3v-0.9h-2.5v1.2h-0.6v-0.2h-0.4v0.4h-0.8v-0.6h-0.7v-0.4h-0.5v0.3h-1.4v3.9
	h-0.7v0.4h-0.4v0.4h-1v0.9h-0.2v-3.5h-2v0.6h-1.2v2.2h-0.8v-0.3h-0.6v-0.4h-1.5v0.4H317v0.3h-0.3v-3.2H314v3.5h-0.7V284h-1.1v1.7
	h-0.6v-2.1h-0.3v-2.7h-2.8v3.4H308v1.2h-1.3v-0.7h-1.6v-0.4h1.8v-0.2h-1.8v-0.5h-0.2v0.5h-0.4v0.1h-0.4v-0.6h-0.9v0.6h-1.5v0.6h-1.6
	v-1h-0.3v-0.7h-0.3v-1.1h2.3v-0.2h-2.3v-0.1h-0.2v0.1h-0.8v0.2h0.8v1.1h-1.1v1.5h-3.1v-1.1h-0.3v-0.4h1.3V283h-1.3v-0.1h-0.2v0.1
	h-0.2v0.2h0.2v0.4h-0.9v0.6h-1.6v0.2h0.7v0.4h-1v0.5h-0.5V285h-0.5v-4.1h-0.3v-0.6h-1v4.8h-1.9v-4.9h-0.8v0.4h-0.4v3.3h-0.7v0.9
	h-0.3V284h-1.3v-0.6h-0.6v-0.7h-0.5v-1.5h-0.8v0.6h-2.1v2.2h-1.1v-0.7h-1.3v-1.5h-3.2v1.7H274v0.5h-0.3v-3h-0.4v-0.7h-0.6v0.6H272
	v2.5h-0.3v0.6h-0.4v-1.8h-2.6v1.5h-0.8v0.6h-0.5v0.4H267v-0.4l-0.3-0.3v-0.6h-1.3v1.5H265v-0.4h-0.5v-4.2H264v-1.2h-0.5v-0.6h-0.6
	v-0.5H262v0.8h-0.5v0.9h-0.3v3.1h-0.6v-0.6h-0.7v0.8H259v-2.4l-0.3-0.3v-1.1H257v0.8h-0.9v1.6h-0.4v-0.3h-0.5l-0.3,0.3l-0.1,0.1v3.6
	h-0.6v-3.6h-0.5v-0.4h-0.8v0.6H252v0.9h-0.4v-0.4h-0.2v0.4h-1v0.2h1v1.2h-0.1v1h-1.7v-1h-0.6v-1.2l-0.2-0.2v-0.6h-1v1.6h-1.3v1h-1.8
	l-0.2-0.2h-0.4v-3.4h-0.5v-0.6h-0.9v-0.5h-0.7v-0.5H241v0.3h-0.5v0.5h-1.1v0.7h-0.5v-1.1h-0.3v-0.3h-0.7v-0.5h-1.1v0.5h-0.5v0.5
	h-0.5v-1h-1.4v-0.5h-1.1v0.7h-1l0-2.8h-0.9v-0.5h-1.1h-0.8v0.9h-0.4l0,4.8h-0.4v-1.3H228V280h-1.6v0.7h-0.7l0-2h-0.6v-0.8l-2.4,0
	l0,2.5h-1.6l0,3.1l-2.2,0l0.1-11.6h-0.9v-0.3h-1.4v0.7h-0.2l-0.1,11h-1.6l0-3h-0.6v-0.7l-2.4,0v1.6h-0.4l0,4.7h-1.1v-1.9h-0.7v-0.5
	h-0.7v0.5h-0.5l0,2h-0.7l0-6.2h-0.5v-0.5h-1.8v0.4h-0.3v-0.6H204l0,7l-2.3,0l0-4.8h-0.5v-0.4h-1l-0.3,0.4h-0.3l0,4.3h-0.7v0.8h-0.5
	l0-4.1h-0.6v-0.4h-0.7v-0.5h-0.6v1.1h-0.4l0,3.9h-0.8l0-8.4h-0.8v-0.9l-2.6,0v1h-0.5v1.6h-0.3l0,6.4l-2.4,0v-1.7h-0.7v-0.5h-1.1v0.5
	h-0.4l0,2.2h-0.6l0-3h-0.9v-0.6h-1.1V282h-1v0.6h-0.5l0,3.4h-1.4v-1.8l-2.6,0l0,2h-0.9l0-3l-2.7,0v1h-0.5v-0.6h-0.5v0.6h-0.5l0-3
	h-0.5v-0.4h-1.2v0.6h-0.4l0,5.1h-0.6l0-5.7h-0.6v-0.5h-0.9v0.5H169l0,5.7l-3.4,0l0-4h-0.9V282H163v0.5h-0.7l0,4.1h-0.6V286h-0.5
	l0-2.8h-0.5v-0.5h-0.9v0.9h-0.3v-0.5h-0.7v0.4h-0.7l0,2.3h-0.9v1h-0.8V286h-0.6v-0.4h-1.2v-0.5H154v0.5h-0.7v0.9H152v-0.9h-0.4v-0.4
	h-0.5v0.3h-0.4v-1.4h-0.4V280h-0.6v0.7h-0.5v-0.4h-0.6v0.4H148v2.4l-0.2,0.2v2.9h-0.4v-6.4h-0.6v-2.2h-0.3v0.2h-0.4v-0.6h-0.1v0.7
	h-0.6v3.2H145v5.2h-0.7v-2.9h-0.4v-2.7H142v4h-0.8v1.1h-0.4v0.4h-0.6v-0.6H140v-0.4h-0.6v-0.3h-1.2v-0.8h-0.5v-0.3h-1v0.4h-0.3v1.6
	h-1.4v-0.9h-0.7v0.4h-0.7v-0.3h-2.2v-1.2h-0.8v-0.3h-0.8v-0.2h-0.4v-2h-0.2v-1h-0.4v-0.3h-0.3v0.3h-1.2v3.5h-0.5v-1.5h-0.6v-0.8
	h-0.9v0.8h-0.3V282h-0.6v-0.5h-0.3v-1.2h-0.3v1.3h-0.2v0.5h-0.1v2.6h-0.4V284h-0.5v-1h-0.4v-1.6h-0.5v-0.3h-0.5v-0.4h-0.3v0.3h-0.3
	V280h-0.5v1.1h-0.5v1.3h-0.3v1.5h-0.9v1.3l-0.2,0.2v0.3h-0.3v-0.3h-0.3v-1.6h-0.3v-0.4H117v0.3h-0.3v0.4h-0.6v-0.4h-1v-1h-1.4v2.4
	h-0.3v0.4h-1.6v0.3h-0.4v-1.3h-0.7v1.7H110v0.2h-0.5v-0.5H109v-0.6h-1.7v0.4H107v0.3h-0.3v-1.6H106v0.3h-1.1v0.4h-0.4v-0.5h-1.7v0.9
	h-0.9v-1.4h-0.5v-0.4h-0.3v0.4h-1v-0.3h-0.3v0.4h-0.4v1.6h-0.4v-1.7h-0.3v-0.3h-0.4v0.4h-0.2v1H98v1.3h-0.3v-0.7h-0.3v-4.8h-0.3
	v-0.5h-2.2v0.6h-0.2v-1.9h-0.9v-0.3h-0.6v0.4h-0.3v3.9h-0.5v-1.5h-0.2v-1.1l-0.1-0.1v-1.9h-0.3v-0.9h-1v0.8h-0.3v0.4h-0.2v2h-0.3
	v-0.9h-2.5v1.2h-0.6v-0.2h-0.4v0.4h-0.8v-0.6h-0.7v-0.4h-0.5v0.3h-1.4v3.9h-0.7v0.4h-0.4v0.4h-1v0.9h-0.2v-3.5h-2.1v0.6h-1.2v2.2
	h-0.8v-0.3h-0.6v-0.4h-1.5v0.4h-0.8v0.3h-0.3v-3.2h-2.7v3.5h-0.7V284h-1.1v1.7h-0.6v-2.1h-0.3v-2.7h-2.8v3.4h-0.5v1.2h-1.3v-0.7
	h-1.6v-0.4h1.8v-0.2h-1.8v-0.5h-0.2v0.5h-0.4v0.1h-0.4v-0.6h-0.9v0.6h-1.5v0.6h-1.6v-1h-0.3v-0.7h-0.3v-1.1h2.3v-0.2h-2.3v-0.1H56
	v0.1h-0.8v0.2H56v1.1h-1.1v1.5h-3.1v-1.1h-0.3v-0.4h1.3V283h-1.3v-0.1h-0.2v0.1H51v0.2h0.2v0.4h-0.9v0.6h-1.6v0.2h0.7v0.4h-1v0.5
	h-0.5V285h-0.5v-4.1h-0.3v-0.6h-1v4.8h-1.9v-4.9h-0.8v0.4H43v3.3h-0.7v0.9H42V284h-1.3v-0.6h-0.6v-0.7h-0.5v-1.5h-0.8v0.6h-2.1v2.2
	h-1.1v-0.7h-1.3v-1.5H31v1.7h-0.5v0.5h-0.3v-3h-0.4v-0.7h-0.6v0.6h-0.7v2.5h-0.3v0.6h-0.4v-1.8h-2.6v1.5h-0.8v0.6H24v0.4h-0.5v-0.4
	l-0.3-0.3v-0.6h-1.3v1.5h-0.5v-0.4h-0.5v-4.2h-0.4v-1.2H20v-0.6h-0.6v-0.5h-0.9v0.8H18v0.9h-0.3v3.1h-0.6v-0.6h-0.7v0.8h-0.8v-2.4
	l-0.3-0.3v-1.1h-1.7v0.8h-0.9v1.6h-0.4v-0.3h-0.5l-0.3,0.3l-0.1,0.1v3.6h-0.6v-3.6h-0.5v-0.4H9.3v0.6H8.6v0.9H8.2v-0.4H7.9v0.4H7
	v0.2h1v1.2H7.8v1H6.1v-1H5.6v-1.2L5.3,283v-0.6h-1v1.6H3v1H1.3l-0.2-0.2h-1.2v12.8H567C567,296.8,566.3,286.1,566.3,286.1z
	 M8.7,283.5H8.4v0.9h0v-1.2h0.4V283.5z M50.4,284.8h-0.7v-0.4h0.7V284.8z M61.6,284.8h-0.4v-0.4h0.4V284.8z M252.1,283.5h-0.4v0.9h0
	v-1.2h0.4V283.5z M293.8,284.8h-0.7v-0.4h0.7V284.8z M304.9,284.8h-0.4v-0.4h0.4V284.8z"/>
</svg>
