<?xml version="1.0" encoding="utf-8"?>
<!-- Generator: Adobe Illustrator 18.1.1, SVG Export Plug-In . SVG Version: 6.00 Build 0)  -->
<svg version="1.1" xmlns="http://www.w3.org/2000/svg" xmlns:xlink="http://www.w3.org/1999/xlink" x="0px" y="0px"
	 viewBox="0 0 210.4 224" enable-background="new 0 0 210.4 224" xml:space="preserve">
<g id="Layer_1" display="none">
	
		<image display="inline" overflow="visible" width="498" height="463" xlink:href="../../../wamp64/www/viarte/src/images/contacto.png"  transform="matrix(1 0 0 1 -52.099 -72.6667)">
	</image>
</g>
<g id="Layer_2">
	<linearGradient id="SVGID_1_" gradientUnits="userSpaceOnUse" x1="105.752" y1="4.0516" x2="105.752" y2="181.6214">
		<stop  offset="5.376344e-003" style="stop-color:#050607"/>
		<stop  offset="4.516019e-002" style="stop-color:#07080A"/>
		<stop  offset="0.3436" style="stop-color:#16171C"/>
		<stop  offset="0.6556" style="stop-color:#1F2027"/>
		<stop  offset="1" style="stop-color:#22232B"/>
	</linearGradient>
	<path fill="url(#SVGID_1_)" d="M163.9,4.1H47.6c-3.5,0-6.2,2.8-6.2,6.2v165.1c0,3.5,2.8,6.2,6.2,6.2h2v-8h111.7v8h2.6
		c3.5,0,6.2-2.8,6.2-6.2V10.3C170.1,6.8,167.3,4.1,163.9,4.1z"/>
	<g>
		<g>
			<linearGradient id="SVGID_2_" gradientUnits="userSpaceOnUse" x1="105.2206" y1="175.4897" x2="105.2206" y2="217.85">
				<stop  offset="5.376344e-003" style="stop-color:#050607"/>
				<stop  offset="0.541" style="stop-color:#17181D"/>
				<stop  offset="1" style="stop-color:#22232B"/>
			</linearGradient>
			<path fill="url(#SVGID_2_)" d="M51,211.2H40.1c-1.5,0-2.6,1.2-2.6,2.6v4H173v-3.9c0-1.5-1.2-2.7-2.7-2.7h-10.9v-35.7H51V211.2z"
				/>
		</g>
	</g>
	<path fill="#FFFFFF" d="M160,161.8H51.5c-2.2,0-4-1.8-4-4V14.2c0-2.2,1.8-4,4-4H160c2.2,0,4,1.8,4,4v143.6
		C164,160,162.2,161.8,160,161.8z"/>
</g>
</svg>
