<?xml version="1.0" encoding="utf-8"?>
<!-- Generator: Adobe Illustrator 18.1.1, SVG Export Plug-In . SVG Version: 6.00 Build 0)  -->
<svg version="1.1" id="Layer_1" xmlns="http://www.w3.org/2000/svg" xmlns:xlink="http://www.w3.org/1999/xlink" x="0px" y="0px"
	 viewBox="15.2 0.2 14.5 14.5" enable-background="new 15.2 0.2 14.5 14.5" xml:space="preserve">
<path fill="#EEA738" d="M29.8,7.5c0,4-3.3,7.3-7.3,7.3s-7.3-3.3-7.3-7.3s3.3-7.3,7.3-7.3C26.5,0.2,29.8,3.5,29.8,7.5"/>
<path fill="#F9C255" d="M22.5,2.3c2.9,0,5.2,2.3,5.2,5.2s-2.3,5.2-5.2,5.2s-5.2-2.3-5.2-5.2C17.3,4.6,19.6,2.3,22.5,2.3 M22.5,1.3
	c-3.4,0-6.2,2.8-6.2,6.2s2.8,6.2,6.2,6.2c3.4,0,6.2-2.8,6.2-6.2S25.9,1.3,22.5,1.3"/>
<path fill="#F9C255" d="M21.6,9.6L21.6,9.6c-0.1,0-0.3-0.1-0.4-0.1L19.8,8c-0.2-0.2-0.2-0.5,0-0.7c0.2-0.2,0.5-0.2,0.7,0l1.1,1.1
	L25,5c0.2-0.2,0.5-0.2,0.7,0c0.2,0.2,0.2,0.5,0,0.7L22,9.5C21.9,9.6,21.8,9.6,21.6,9.6z"/>
</svg>
