<?xml version="1.0" encoding="utf-8"?>
<!-- Generator: Adobe Illustrator 18.1.1, SVG Export Plug-In . SVG Version: 6.00 Build 0)  -->
<svg version="1.1" id="Layer_1" xmlns="http://www.w3.org/2000/svg" xmlns:xlink="http://www.w3.org/1999/xlink" x="0px" y="0px"
	 viewBox="0 47.6 55 15.8" enable-background="new 0 47.6 55 15.8" xml:space="preserve">
<g>
	<g>
		<g id="t_1_">
			<g>
				<path fill="#4E4D50" d="M51.6,57.8c0,0.5-0.4,0.9-0.9,0.9s-0.9-0.4-0.9-0.9v-5.4c0-0.5,0.4-0.9,0.9-0.9s0.9,0.4,0.9,0.9v0.9h0.9
					c0.5,0,0.9,0.4,0.9,0.9c0,0.5-0.4,0.9-0.9,0.9s-0.9,0.4-0.9,0.9V57.8z"/>
			</g>
		</g>
		<g id="e_1_">
			<g>
				<path fill="#4E4D50" d="M48.1,56.9L49,56c0-1.5-1.2-2.8-2.8-2.8c-1.5,0-2.8,1.2-2.8,2.8c0,1.5,1.2,2.8,2.8,2.8h1.9
					c0.5,0,0.9-0.4,0.9-0.9C49,57.3,48.6,56.9,48.1,56.9z M47,55.6l-1.1,1.1c0,0-0.1,0.1-0.1,0l0,0c-0.1,0-0.1-0.1-0.2-0.1
					c-0.4-0.4-0.4-0.9,0-1.3c0.4-0.4,0.9-0.4,1.3,0c0.1,0.1,0.1,0.1,0.1,0.2l0,0C47.1,55.5,47.1,55.6,47,55.6z"/>
			</g>
		</g>
		<g id="n2_1_">
			<g>
				<path fill="#4E4D50" d="M43,56c0-1.5-1.2-2.7-2.8-2.7h-1v0.7c-0.1-0.4-0.5-0.7-0.9-0.7c-0.5,0-0.9,0.4-0.9,0.9V56v1.8
					c0,0.5,0.4,0.9,0.9,0.9s0.9-0.4,0.9-0.9V56c0-0.5,0.4-0.9,0.9-0.9c0.5,0,0.9,0.4,0.9,0.9v1.8c0,0.5,0.4,0.9,0.9,0.9
					c0.5,0,0.9-0.4,0.9-0.9L43,56L43,56z"/>
			</g>
		</g>
		<g id="a_1_">
			<g>
				<path fill="#4E4D50" d="M34.1,56.9c-0.5,0-0.9-0.4-0.9-0.9s0.4-0.9,0.9-0.9S35,55.4,35,56S34.6,56.9,34.1,56.9z M36.8,56
					c0-1.5-1.2-2.7-2.8-2.7c-1.5,0-2.8,1.2-2.8,2.7c0,1.5,1.2,2.7,2.8,2.7h1V58c0.1,0.4,0.5,0.7,0.9,0.7c0.5,0,0.9-0.4,0.9-0.9V56"
					/>
			</g>
		</g>
		<g id="v_1_">
			<g>
				<path fill="#4E4D50" d="M30.7,53.4c-0.5-0.2-1-0.1-1.2,0.4l-1,2l-1-2c-0.2-0.5-0.8-0.6-1.2-0.4c-0.5,0.2-0.6,0.8-0.4,1.2
					l1.8,3.6c0.2,0.3,0.4,0.6,0.9,0.6l0,0l0,0c0.4,0,0.7-0.3,0.9-0.6l1.8-3.6C31.3,54.1,31.1,53.6,30.7,53.4z"/>
			</g>
		</g>
		<g id="o_1_">
			<g>
				<path fill="#4E4D50" d="M22.8,53.3c-1.5,0-2.8,1.2-2.8,2.7s1.2,2.7,2.8,2.7c1.5,0,2.8-1.2,2.8-2.7
					C25.6,54.5,24.3,53.3,22.8,53.3z M22.8,56.9c-0.5,0-0.9-0.4-0.9-0.9c0-0.5,0.4-0.9,0.9-0.9s0.9,0.4,0.9,0.9
					C23.7,56.5,23.3,56.9,22.8,56.9z"/>
			</g>
		</g>
		<g id="n_1_">
			<g>
				<path fill="#4E4D50" d="M19.5,56c0-1.5-1.2-2.7-2.8-2.7h-1v0.7c-0.1-0.4-0.5-0.7-0.9-0.7c-0.5,0-0.9,0.4-0.9,0.9V56v1.8
					c0,0.5,0.4,0.9,0.9,0.9c0.5,0,0.9-0.4,0.9-0.9V56c0-0.5,0.4-0.9,0.9-0.9c0.5,0,0.9,0.4,0.9,0.9v1.8c0,0.5,0.4,0.9,0.9,0.9
					c0.5,0,0.9-0.4,0.9-0.9L19.5,56z"/>
			</g>
		</g>
	</g>
	<g>
		<g>
			<path fill="#008ED3" d="M10.3,55.9c-1.6,0-2.9,1.3-2.9,2.9s1.3,2.9,2.9,2.9s2.9-1.3,2.9-2.9S11.9,55.9,10.3,55.9z M10.3,59.8
				c-0.6,0-1-0.4-1-1c0-0.5,0.4-1,1-1s1,0.4,1,1C11.3,59.4,10.8,59.8,10.3,59.8z"/>
		</g>
		<path fill="#008ED3" d="M10.3,49.3c-1.6,0-2.9,1.3-2.9,2.9s1.3,2.9,2.9,2.9s2.9-1.3,2.9-2.9S11.9,49.3,10.3,49.3z M10.3,53.2
			c-0.6,0-1-0.4-1-1c0-0.5,0.4-1,1-1s1,0.4,1,1C11.3,52.7,10.8,53.2,10.3,53.2z"/>
		<path fill="#008ED3" d="M4.5,52.7c-1.6,0-2.9,1.3-2.9,2.9s1.3,2.9,2.9,2.9s2.9-1.3,2.9-2.9C7.4,53.9,6.1,52.7,4.5,52.7z M4.5,56.5
			c-0.6,0-1-0.4-1-1c0-0.5,0.4-1,1-1s1,0.4,1,1C5.5,56.1,5.1,56.5,4.5,56.5z"/>
	</g>
</g>
</svg>
