<?xml version="1.0" encoding="UTF-8"?>
<svg width="1309.3" height="314.26" version="1.1" viewBox="0 0 1309.3199 314.26099" xml:space="preserve" xmlns="http://www.w3.org/2000/svg" xmlns:cc="http://creativecommons.org/ns#" xmlns:dc="http://purl.org/dc/elements/1.1/" xmlns:rdf="http://www.w3.org/1999/02/22-rdf-syntax-ns#"><metadata><rdf:RDF><cc:Work rdf:about=""><dc:format>image/svg+xml</dc:format><dc:type rdf:resource="http://purl.org/dc/dcmitype/StillImage"/><dc:title/></cc:Work></rdf:RDF></metadata><defs><clipPath id="a"><path d="m0 288h1050v-288h-1050z"/></clipPath></defs><g transform="matrix(1.3333 0 0 -1.3333 0 384)"><g transform="translate(-35.187 26.247)"><g clip-path="url(#a)"><g transform="translate(916.04 117.76)"><path d="m0 0 17.476 17.338c0 28.625-23.41 52.006-52.438 52.006-29.019 0-52.429-23.223-52.429-52.006 0-28.625 23.41-52.005 52.429-52.005h34.962c9.624 0 17.476 7.793 17.476 17.328 0 9.545-7.852 17.339-17.476 17.339m-20.526 24.02-21.009-20.841c-0.64-0.63-1.605-0.798-2.559-0.473-1.289 0.63-2.086 1.584-2.893 2.381-6.888 6.839-6.888 17.653 0 24.493 6.898 6.838 17.8 6.838 24.699 0 0.964-0.955 1.603-1.585 2.401-2.864 0.325-0.954 0.167-1.909-0.639-2.696" fill="#4f4d4f"/></g><g transform="translate(872.89 119.79)"><path d="m0 0c-5.578 2.874-9.392 8.689-9.392 15.396 0 9.56 7.749 17.309 17.309 17.309 6.678 0 12.473-3.782 15.359-9.321zm42.534-1.912 17.309 17.308c0 28.678-23.248 51.926-51.926 51.926-28.679 0-51.927-23.248-51.927-51.926s23.248-51.926 51.927-51.926h34.617c9.56 0 17.309 7.75 17.309 17.308 0 9.56-7.749 17.31-17.309 17.31" fill="#4f4d4f"/></g><g transform="translate(374.16 135.1)"><path d="m0 0c0 28.635-23.213 51.848-51.848 51.848h-17.827v-12.962c-1.919 7.454-8.685 12.962-16.739 12.962-9.544 0-17.282-7.738-17.282-17.283v-69.13c0-9.545 7.738-17.284 17.282-17.284 9.545 0 17.283 7.739 17.283 17.284v34.565c0 9.545 7.738 17.282 17.283 17.282s17.283-7.737 17.283-17.282v-34.565c0-9.545 7.737-17.284 17.282-17.284s17.283 7.739 17.283 17.284z" fill="#4f4d4f"/></g><g transform="translate(817.48 135.1)"><path d="m0 0c0 28.635-23.213 51.848-51.848 51.848h-17.827v-12.962c-1.919 7.454-8.685 12.962-16.738 12.962-9.545 0-17.283-7.738-17.283-17.283v-69.13c0-9.545 7.738-17.284 17.283-17.284s17.282 7.739 17.282 17.284v34.565c0 9.545 7.738 17.282 17.283 17.282s17.283-7.737 17.283-17.282v-34.565c0-9.545 7.738-17.284 17.283-17.284s17.282 7.739 17.282 17.284z" fill="#4f4d4f"/></g><g transform="translate(586.74 185.31)"><path d="m0 0c-8.594 4.302-19.049 0.823-23.352-7.771l-19.273-38.5-19.273 38.5c-4.303 8.594-14.758 12.073-23.352 7.771-8.595-4.303-12.074-14.757-7.771-23.352l34.249-68.412c3.217-6.374 7.995-10.646 16.113-10.843 0.012 0 0.022 1e-3 0.034 1e-3s0.022-1e-3 0.034-1e-3c7.833-0.052 12.859 5.032 16.113 10.842l34.249 68.413c4.303 8.595 0.824 19.049-7.771 23.352" fill="#4f4d4f"/></g><g transform="translate(702.26 134.79)"><path d="m0 0c0 28.762-23.316 52.078-52.078 52.078s-52.078-23.316-52.078-52.078 23.316-52.078 52.078-52.078h17.906v13.019c1.927-7.487 8.724-13.019 16.813-13.019 9.587 0 17.359 7.772 17.359 17.359v34.719m-52.078-17.359c-9.587 0-17.36 7.772-17.36 17.359s7.773 17.359 17.36 17.359 17.359-7.772 17.359-17.359-7.772-17.359-17.359-17.359" fill="#4f4d4f"/></g><g transform="translate(436.75 117.73)"><path d="m0 0c-9.566 0-17.321 7.755-17.321 17.321 0 9.567 7.755 17.322 17.321 17.322s17.321-7.755 17.321-17.322c0-9.566-7.755-17.321-17.321-17.321m0 69.285c-28.699 0-51.964-23.264-51.964-51.964 0-28.698 23.265-51.964 51.964-51.964s51.964 23.266 51.964 51.964c0 28.7-23.265 51.964-51.964 51.964" fill="#4f4d4f"/></g><g transform="translate(199.91 136.05)"><path d="m0 0c-30.633 0-55.479-24.649-55.479-55.026s24.846-55.027 55.479-55.027c30.623 0 55.479 24.65 55.479 55.027s-24.856 55.026-55.479 55.026m0-73.319c-10.264 0-18.441 8.108-18.441 18.293 0 10.174 8.177 18.283 18.441 18.283 10.263 0 18.44-8.109 18.44-18.283 0-10.185-8.177-18.293-18.44-18.293" fill="#148dcd"/></g><g transform="translate(199.91 261.7)"><path d="m0 0c-30.633 0-55.479-24.65-55.479-55.027 0-30.376 24.846-55.026 55.479-55.026 30.623 0 55.479 24.65 55.479 55.026 0 30.377-24.856 55.027-55.479 55.027m0-73.32c-10.264 0-18.441 8.109-18.441 18.293 0 10.175 8.177 18.284 18.441 18.284 10.263 0 18.44-8.109 18.44-18.284 0-10.017-8.177-18.293-18.44-18.293" fill="#148dcd"/></g><g transform="translate(90.707 198.4)"><path d="m0 0c-30.632 0-55.479-24.649-55.479-54.87 0-30.376 24.847-55.025 55.479-55.025 30.623 0 55.479 24.649 55.479 55.025-0.158 30.221-24.856 54.87-55.479 54.87m0-73.163c-10.263 0-18.44 8.119-18.44 18.293 0 10.176 8.177 18.294 18.44 18.294s18.44-8.118 18.44-18.294c0-10.174-8.177-18.293-18.44-18.293" fill="#148dcd"/></g><g transform="translate(982.5 100.61)"><path d="m0 0c0-9.586-7.771-17.357-17.356-17.357-9.587 0-17.358 7.771-17.358 17.357v108.48c0 9.586 7.771 17.357 17.358 17.357 9.585 0 17.356-7.771 17.356-17.357v-21.696h17.357c9.586 0 17.358-7.771 17.358-17.357 0-9.587-7.772-17.358-17.358-17.358s-17.357-7.771-17.357-17.357z" fill="#4f4d4f"/></g></g></g></g></svg>
