<?xml version="1.0" encoding="utf-8"?>
<!-- Generator: Adobe Illustrator 18.1.1, SVG Export Plug-In . SVG Version: 6.00 Build 0)  -->
<svg version="1.1" id="Layer_1" xmlns="http://www.w3.org/2000/svg" xmlns:xlink="http://www.w3.org/1999/xlink" x="0px" y="0px"
	 viewBox="0 123.8 612 579" enable-background="new 0 123.8 612 579" xml:space="preserve">
<path fill="#FFFFFF" d="M603.8,659.4c0,25.6-24.2,44.4-48.9,38L37.8,564.8c-17.4-4.4-29.5-20.1-29.5-38V299.9
	c0-17.9,12.1-33.6,29.5-38l517.1-132.5c24.8-6.4,48.9,12.4,48.9,38V659.4z"/>
<path d="M37.8,261.9l517.1-132.5c24.8-6.4,48.9,12.4,48.9,38v492c0,25.6-24.2,44.4-48.9,38L37.8,564.8c-17.4-4.4-29.5-20.1-29.5-38
	V299.9C8.2,282,20.4,266.3,37.8,261.9z"/>
</svg>
