<?xml version="1.0" encoding="utf-8"?>
<!-- Generator: Adobe Illustrator 18.1.1, SVG Export Plug-In . SVG Version: 6.00 Build 0)  -->
<svg version="1.1" id="Layer_1" xmlns="http://www.w3.org/2000/svg" xmlns:xlink="http://www.w3.org/1999/xlink" x="0px" y="0px"
	 viewBox="0 17.3 566.9 536.3" enable-background="new 0 17.3 566.9 536.3" xml:space="preserve">
<path fill="#FFFFFF" d="M0,17.3v536.3h566.9V17.3H0z M559.3,513.4c0,23.7-22.4,41.1-45.3,35.2L35,425.8
	c-16.1-4.1-27.3-18.6-27.3-35.2V180.4c0-16.6,11.2-31.1,27.3-35.2l479-122.7c23-5.9,45.3,11.5,45.3,35.2V513.4z"/>
<linearGradient id="SVGID_1_" gradientUnits="userSpaceOnUse" x1="7.6475" y1="285.5043" x2="559.2825" y2="285.5043">
	<stop  offset="0" style="stop-color:#4D4D4D;stop-opacity:0"/>
	<stop  offset="0.747" style="stop-color:#4E4E4F;stop-opacity:0.1494"/>
	<stop  offset="1" style="stop-color:#515255;stop-opacity:0.2"/>
</linearGradient>
<path fill="url(#SVGID_1_)" d="M35,145.2l479-122.7c23-5.9,45.3,11.5,45.3,35.2v455.7c0,23.7-22.4,41.1-45.3,35.2L35,425.8
	c-16.1-4.1-27.3-18.6-27.3-35.2V180.4C7.6,163.8,18.9,149.3,35,145.2z"/>
</svg>
