<?xml version="1.0" encoding="utf-8"?>
<!-- Generator: Adobe Illustrator 18.1.1, SVG Export Plug-In . SVG Version: 6.00 Build 0)  -->
<svg version="1.1" id="Layer_1" xmlns="http://www.w3.org/2000/svg" xmlns:xlink="http://www.w3.org/1999/xlink" x="0px" y="0px"
	 viewBox="0 0 213.3 219.3" enable-background="new 0 0 213.3 219.3" xml:space="preserve">
<rect y="0" fill="none" width="213.3" height="219.3"/>
<g>
	<g>
		<g>
			<defs>
				<rect id="SVGID_391_" x="2.2" y="24.9" width="208.9" height="169.5"/>
			</defs>
			<clipPath id="SVGID_2_">
				<use xlink:href="#SVGID_391_"  overflow="visible"/>
			</clipPath>
			<polygon clip-path="url(#SVGID_2_)" fill="#E36A5C" points="187.5,96.3 180.6,108.2 204.4,108.2 211.2,96.3 			"/>
		</g>
	</g>
	<g>
		<g>
			<defs>
				<rect id="SVGID_393_" x="2.2" y="24.9" width="208.9" height="169.5"/>
			</defs>
			<clipPath id="SVGID_4_">
				<use xlink:href="#SVGID_393_"  overflow="visible"/>
			</clipPath>
			<polygon clip-path="url(#SVGID_4_)" fill="#E36A5C" points="180.6,108.2 187.5,120.1 211.2,120.1 204.4,108.2 			"/>
		</g>
	</g>
	<g>
		<g>
			<defs>
				<rect id="SVGID_395_" x="2.2" y="24.9" width="208.9" height="169.5"/>
			</defs>
			<clipPath id="SVGID_6_">
				<use xlink:href="#SVGID_395_"  overflow="visible"/>
			</clipPath>
			<g clip-path="url(#SVGID_6_)">
				<g>
					<g>
						<defs>
							<rect id="SVGID_397_" x="2.2" y="24.9" width="208.9" height="169.5"/>
						</defs>
						<defs>
							<rect id="SVGID_398_" x="2.2" y="24.9" width="208.9" height="169.5"/>
						</defs>
						<defs>
							<rect id="SVGID_399_" x="2.2" y="24.9" width="208.9" height="169.5"/>
						</defs>
						<defs>
							<rect id="SVGID_400_" x="2.2" y="24.9" width="208.9" height="169.5"/>
						</defs>
						<defs>
							<rect id="SVGID_401_" x="2.2" y="24.9" width="208.9" height="169.5"/>
						</defs>
						<defs>
							<rect id="SVGID_402_" x="2.2" y="24.9" width="208.9" height="169.5"/>
						</defs>
						<defs>
							<rect id="SVGID_403_" x="2.2" y="24.9" width="208.9" height="169.5"/>
						</defs>
						<defs>
							<rect id="SVGID_404_" x="2.2" y="24.9" width="208.9" height="169.5"/>
						</defs>
						<defs>
							<rect id="SVGID_405_" x="2.2" y="24.9" width="208.9" height="169.5"/>
						</defs>
						<defs>
							<rect id="SVGID_406_" x="2.2" y="24.9" width="208.9" height="169.5"/>
						</defs>
						<defs>
							<rect id="SVGID_407_" x="2.2" y="24.9" width="208.9" height="169.5"/>
						</defs>
						<defs>
							<rect id="SVGID_408_" x="2.2" y="24.9" width="208.9" height="169.5"/>
						</defs>
						<defs>
							<rect id="SVGID_409_" x="2.2" y="24.9" width="208.9" height="169.5"/>
						</defs>
						<defs>
							<rect id="SVGID_410_" x="2.2" y="24.9" width="208.9" height="169.5"/>
						</defs>
						<defs>
							<rect id="SVGID_411_" x="2.2" y="24.9" width="208.9" height="169.5"/>
						</defs>
						<defs>
							<rect id="SVGID_412_" x="2.2" y="24.9" width="208.9" height="169.5"/>
						</defs>
						<defs>
							<rect id="SVGID_413_" x="2.2" y="24.9" width="208.9" height="169.5"/>
						</defs>
						<defs>
							<rect id="SVGID_414_" x="2.2" y="24.9" width="208.9" height="169.5"/>
						</defs>
						<defs>
							<rect id="SVGID_415_" x="2.2" y="24.9" width="208.9" height="169.5"/>
						</defs>
						<defs>
							<rect id="SVGID_416_" x="2.2" y="24.9" width="208.9" height="169.5"/>
						</defs>
						<defs>
							<rect id="SVGID_417_" x="2.2" y="24.9" width="208.9" height="169.5"/>
						</defs>
						<defs>
							<rect id="SVGID_418_" x="2.2" y="24.9" width="208.9" height="169.5"/>
						</defs>
						<defs>
							<rect id="SVGID_419_" x="2.2" y="24.9" width="208.9" height="169.5"/>
						</defs>
						<defs>
							<rect id="SVGID_420_" x="2.2" y="24.9" width="208.9" height="169.5"/>
						</defs>
						<defs>
							<rect id="SVGID_421_" x="2.2" y="24.9" width="208.9" height="169.5"/>
						</defs>
						<defs>
							<rect id="SVGID_422_" x="2.2" y="24.9" width="208.9" height="169.5"/>
						</defs>
						<defs>
							<rect id="SVGID_423_" x="2.2" y="24.9" width="208.9" height="169.5"/>
						</defs>
						<defs>
							<rect id="SVGID_424_" x="2.2" y="24.9" width="208.9" height="169.5"/>
						</defs>
						<defs>
							<rect id="SVGID_425_" x="2.2" y="24.9" width="208.9" height="169.5"/>
						</defs>
						<defs>
							<rect id="SVGID_426_" x="2.2" y="24.9" width="208.9" height="169.5"/>
						</defs>
						<defs>
							<rect id="SVGID_427_" x="2.2" y="24.9" width="208.9" height="169.5"/>
						</defs>
						<defs>
							<rect id="SVGID_428_" x="2.2" y="24.9" width="208.9" height="169.5"/>
						</defs>
						<defs>
							<rect id="SVGID_429_" x="2.2" y="24.9" width="208.9" height="169.5"/>
						</defs>
						<defs>
							<rect id="SVGID_430_" x="2.2" y="24.9" width="208.9" height="169.5"/>
						</defs>
						<defs>
							<rect id="SVGID_431_" x="2.2" y="24.9" width="208.9" height="169.5"/>
						</defs>
						<clipPath id="SVGID_8_">
							<use xlink:href="#SVGID_397_"  overflow="visible"/>
						</clipPath>
						<clipPath id="SVGID_10_" clip-path="url(#SVGID_8_)">
							<use xlink:href="#SVGID_398_"  overflow="visible"/>
						</clipPath>
						<clipPath id="SVGID_12_" clip-path="url(#SVGID_10_)">
							<use xlink:href="#SVGID_399_"  overflow="visible"/>
						</clipPath>
						<clipPath id="SVGID_14_" clip-path="url(#SVGID_12_)">
							<use xlink:href="#SVGID_400_"  overflow="visible"/>
						</clipPath>
						<clipPath id="SVGID_16_" clip-path="url(#SVGID_14_)">
							<use xlink:href="#SVGID_401_"  overflow="visible"/>
						</clipPath>
						<clipPath id="SVGID_18_" clip-path="url(#SVGID_16_)">
							<use xlink:href="#SVGID_402_"  overflow="visible"/>
						</clipPath>
						<clipPath id="SVGID_20_" clip-path="url(#SVGID_18_)">
							<use xlink:href="#SVGID_403_"  overflow="visible"/>
						</clipPath>
						<clipPath id="SVGID_22_" clip-path="url(#SVGID_20_)">
							<use xlink:href="#SVGID_404_"  overflow="visible"/>
						</clipPath>
						<clipPath id="SVGID_24_" clip-path="url(#SVGID_22_)">
							<use xlink:href="#SVGID_405_"  overflow="visible"/>
						</clipPath>
						<clipPath id="SVGID_26_" clip-path="url(#SVGID_24_)">
							<use xlink:href="#SVGID_406_"  overflow="visible"/>
						</clipPath>
						<clipPath id="SVGID_28_" clip-path="url(#SVGID_26_)">
							<use xlink:href="#SVGID_407_"  overflow="visible"/>
						</clipPath>
						<clipPath id="SVGID_30_" clip-path="url(#SVGID_28_)">
							<use xlink:href="#SVGID_408_"  overflow="visible"/>
						</clipPath>
						<clipPath id="SVGID_32_" clip-path="url(#SVGID_30_)">
							<use xlink:href="#SVGID_409_"  overflow="visible"/>
						</clipPath>
						<clipPath id="SVGID_209_" clip-path="url(#SVGID_32_)">
							<use xlink:href="#SVGID_410_"  overflow="visible"/>
						</clipPath>
						<clipPath id="SVGID_210_" clip-path="url(#SVGID_209_)">
							<use xlink:href="#SVGID_411_"  overflow="visible"/>
						</clipPath>
						<clipPath id="SVGID_211_" clip-path="url(#SVGID_210_)">
							<use xlink:href="#SVGID_412_"  overflow="visible"/>
						</clipPath>
						<clipPath id="SVGID_212_" clip-path="url(#SVGID_211_)">
							<use xlink:href="#SVGID_413_"  overflow="visible"/>
						</clipPath>
						<clipPath id="SVGID_213_" clip-path="url(#SVGID_212_)">
							<use xlink:href="#SVGID_414_"  overflow="visible"/>
						</clipPath>
						<clipPath id="SVGID_214_" clip-path="url(#SVGID_213_)">
							<use xlink:href="#SVGID_415_"  overflow="visible"/>
						</clipPath>
						<clipPath id="SVGID_215_" clip-path="url(#SVGID_214_)">
							<use xlink:href="#SVGID_416_"  overflow="visible"/>
						</clipPath>
						<clipPath id="SVGID_216_" clip-path="url(#SVGID_215_)">
							<use xlink:href="#SVGID_417_"  overflow="visible"/>
						</clipPath>
						<clipPath id="SVGID_217_" clip-path="url(#SVGID_216_)">
							<use xlink:href="#SVGID_418_"  overflow="visible"/>
						</clipPath>
						<clipPath id="SVGID_218_" clip-path="url(#SVGID_217_)">
							<use xlink:href="#SVGID_419_"  overflow="visible"/>
						</clipPath>
						<clipPath id="SVGID_219_" clip-path="url(#SVGID_218_)">
							<use xlink:href="#SVGID_420_"  overflow="visible"/>
						</clipPath>
						<clipPath id="SVGID_220_" clip-path="url(#SVGID_219_)">
							<use xlink:href="#SVGID_421_"  overflow="visible"/>
						</clipPath>
						<clipPath id="SVGID_221_" clip-path="url(#SVGID_220_)">
							<use xlink:href="#SVGID_422_"  overflow="visible"/>
						</clipPath>
						<clipPath id="SVGID_222_" clip-path="url(#SVGID_221_)">
							<use xlink:href="#SVGID_423_"  overflow="visible"/>
						</clipPath>
						<clipPath id="SVGID_223_" clip-path="url(#SVGID_222_)">
							<use xlink:href="#SVGID_424_"  overflow="visible"/>
						</clipPath>
						<clipPath id="SVGID_224_" clip-path="url(#SVGID_223_)">
							<use xlink:href="#SVGID_425_"  overflow="visible"/>
						</clipPath>
						<clipPath id="SVGID_225_" clip-path="url(#SVGID_224_)">
							<use xlink:href="#SVGID_426_"  overflow="visible"/>
						</clipPath>
						<clipPath id="SVGID_226_" clip-path="url(#SVGID_225_)">
							<use xlink:href="#SVGID_427_"  overflow="visible"/>
						</clipPath>
						<clipPath id="SVGID_227_" clip-path="url(#SVGID_226_)">
							<use xlink:href="#SVGID_428_"  overflow="visible"/>
						</clipPath>
						<clipPath id="SVGID_228_" clip-path="url(#SVGID_227_)">
							<use xlink:href="#SVGID_429_"  overflow="visible"/>
						</clipPath>
						<clipPath id="SVGID_229_" clip-path="url(#SVGID_228_)">
							<use xlink:href="#SVGID_430_"  overflow="visible"/>
						</clipPath>
						<clipPath id="SVGID_230_" clip-path="url(#SVGID_229_)">
							<use xlink:href="#SVGID_431_"  overflow="visible"/>
						</clipPath>
						<path clip-path="url(#SVGID_230_)" fill="#E36A5C" d="M168.7,108.2c0,46-37.2,83.3-83.3,83.3S2.2,154.2,2.2,108.2
							s37.2-83.3,83.3-83.3S168.7,62.1,168.7,108.2"/>
						<path clip-path="url(#SVGID_230_)" fill="#FFFFFF" d="M85.5,48.7c32.8,0,59.4,26.7,59.4,59.4s-26.7,59.4-59.4,59.4
							S26,140.8,26,108.1S52.7,48.7,85.5,48.7 M85.5,36.8c-39.4,0-71.4,31.9-71.4,71.4s31.9,71.4,71.4,71.4s71.4-31.9,71.4-71.4
							S124.8,36.8,85.5,36.8"/>
						<path clip-path="url(#SVGID_230_)" fill="#FFFFFF" d="M85.5,72.5c19.7,0,35.6,16,35.6,35.6s-16,35.6-35.6,35.6
							s-35.6-16-35.6-35.6S65.8,72.5,85.5,72.5 M85.5,60.6c-26.2,0-47.5,21.3-47.5,47.5s21.3,47.5,47.5,47.5s47.5-21.3,47.5-47.5
							C133,81.9,111.7,60.6,85.5,60.6"/>
						<path clip-path="url(#SVGID_230_)" fill="#FFFFFF" d="M85.5,96.3c6.5,0,11.9,5.4,11.9,11.9c0,6.5-5.4,11.9-11.9,11.9
							c-6.5,0-11.9-5.4-11.9-11.9C73.6,101.6,79,96.3,85.5,96.3 M85.5,84.4c-13.2,0-23.8,10.7-23.8,23.8c0,13.2,10.7,23.8,23.8,23.8
							s23.8-10.7,23.8-23.8C109.2,95,98.6,84.4,85.5,84.4"/>
						<path clip-path="url(#SVGID_230_)" fill="#3B4250" d="M204.4,111.1H85.5c-1.6,0-2.9-1.3-2.9-2.9c0-1.6,1.3-2.9,2.9-2.9h118.9
							c1.6,0,2.9,1.3,2.9,2.9C207.3,109.8,206,111.1,204.4,111.1"/>
					</g>
					<g>
						<g>
							<defs>
								<rect id="SVGID_467_" x="2.2" y="24.9" width="208.9" height="169.5"/>
							</defs>
							<clipPath id="SVGID_231_">
								<use xlink:href="#SVGID_467_"  overflow="visible"/>
							</clipPath>
							<g clip-path="url(#SVGID_231_)">
								<g>
									<g>
										<defs>
											<circle id="SVGID_469_" cx="85.5" cy="108.2" r="83.3"/>
										</defs>
										<clipPath id="SVGID_232_">
											<use xlink:href="#SVGID_469_"  overflow="visible"/>
										</clipPath>
										<g clip-path="url(#SVGID_232_)">
											<g>
												<g opacity="0.3">
													<g>
														<defs>
															<rect id="SVGID_471_" x="82.5" y="105.2" width="89.2" height="89.2"/>
														</defs>
														<clipPath id="SVGID_233_">
															<use xlink:href="#SVGID_471_"  overflow="visible"/>
														</clipPath>
														<path clip-path="url(#SVGID_233_)" fill="#3B4250" d="M168.7,194.4c-0.8,0-1.5-0.3-2.1-0.9l-83.3-83.3
															c-1.2-1.2-1.2-3,0-4.2c1.2-1.2,3-1.2,4.2,0l83.3,83.3c1.2,1.2,1.2,3,0,4.2C170.2,194.1,169.4,194.4,168.7,194.4"/>
													</g>
												</g>
											</g>
										</g>
									</g>
								</g>
							</g>
						</g>
					</g>
				</g>
			</g>
		</g>
	</g>
</g>
</svg>
