<?xml version="1.0" encoding="utf-8"?>
<!-- Generator: Adobe Illustrator 18.1.1, SVG Export Plug-In . SVG Version: 6.00 Build 0)  -->
<svg version="1.1" id="Layer_1" xmlns="http://www.w3.org/2000/svg" xmlns:xlink="http://www.w3.org/1999/xlink" x="0px" y="0px"
	 viewBox="626.7 0 213.3 219.3" enable-background="new 626.7 0 213.3 219.3" xml:space="preserve">
<g>
	<g>
		<g>
			<defs>
				<rect id="SVGID_1_" x="632.7" y="6.2" width="201.3" height="207"/>
			</defs>
			<clipPath id="SVGID_2_">
				<use xlink:href="#SVGID_1_"  overflow="visible"/>
			</clipPath>
			<path clip-path="url(#SVGID_2_)" fill="#242C3C" d="M733.3,52.5c-2.6,0-5.3-0.6-7.4-1.5l-16.1-8c-3.3-1.7-9.2-3.1-12.9-3.1h-36.4
				v-3.7h36.4c4.2,0,10.9,1.5,14.6,3.5l16.1,8c3.1,1.5,8.3,1.5,11.4,0l16.1-8c3.9-1.9,10.4-3.5,14.7-3.5h36.4v3.7h-36.5
				c-3.8,0-9.6,1.3-13,3.1l-16.1,8C738.7,52,736,52.5,733.3,52.5"/>
		</g>
	</g>
	<g>
		<g>
			<defs>
				<rect id="SVGID_3_" x="632.7" y="6.2" width="201.3" height="207"/>
			</defs>
			<clipPath id="SVGID_4_">
				<use xlink:href="#SVGID_3_"  overflow="visible"/>
			</clipPath>
			<path clip-path="url(#SVGID_4_)" fill="#242C3C" d="M733.3,211.6c-4.1,0-7.2-3.3-7.2-7.2l3.8-147.5c0-2.3,1.5-4.1,3.6-4.1
				c1.9,0,3.6,1.8,3.6,4.1l3.8,147.5C740.6,208.3,737.3,211.6,733.3,211.6"/>
		</g>
	</g>
	<g>
		<g>
			<defs>
				<rect id="SVGID_5_" x="632.7" y="6.2" width="201.3" height="207"/>
			</defs>
			<clipPath id="SVGID_6_">
				<use xlink:href="#SVGID_5_"  overflow="visible"/>
			</clipPath>
			<path clip-path="url(#SVGID_6_)" fill="#FFFFFF" d="M747.9,198.5c0,8-6.6,14.6-14.6,14.6s-14.6-6.6-14.6-14.6
				c0-8,6.6-14.6,14.6-14.6C741.4,183.9,747.9,190.5,747.9,198.5"/>
		</g>
	</g>
	<g>
		<g>
			<defs>
				<rect id="SVGID_7_" x="632.7" y="6.2" width="201.3" height="207"/>
			</defs>
			<clipPath id="SVGID_8_">
				<use xlink:href="#SVGID_7_"  overflow="visible"/>
			</clipPath>
			<path clip-path="url(#SVGID_8_)" fill="#FFFFFF" d="M762.6,198.5h-58.3c-8,0-14.6,6.6-14.6,14.6h14.6h14.6H748h14.6h14.6
				C777.1,205,770.6,198.5,762.6,198.5"/>
		</g>
	</g>
	<g>
		<g>
			<defs>
				<rect id="SVGID_9_" x="632.7" y="6.2" width="201.3" height="207"/>
			</defs>
			<clipPath id="SVGID_10_">
				<use xlink:href="#SVGID_9_"  overflow="visible"/>
			</clipPath>
			<path clip-path="url(#SVGID_10_)" fill="#242C3C" d="M699,133.2c-0.8,0-1.4-0.5-1.7-1.3l-29.6-88.2l-29.6,88.2
				c-0.4,0.9-1.3,1.4-2.3,1.2c-0.9-0.4-1.4-1.3-1.2-2.3l31.3-93.3c0.3-0.8,0.9-1.3,1.7-1.3s1.4,0.5,1.7,1.3l31.3,93.3
				c0.4,0.9-0.2,2-1.2,2.3C699.4,133.2,699.2,133.2,699,133.2"/>
		</g>
	</g>
	<g>
		<g>
			<defs>
				<rect id="SVGID_11_" x="632.7" y="6.2" width="201.3" height="207"/>
			</defs>
			<clipPath id="SVGID_12_">
				<use xlink:href="#SVGID_11_"  overflow="visible"/>
			</clipPath>
			<path clip-path="url(#SVGID_12_)" fill="#F4C47A" d="M632.7,131.4c7,14,20.1,23.3,35,23.3c14.9,0,28-9.4,35-23.3H632.7z"/>
		</g>
	</g>
	<g>
		<g>
			<defs>
				<rect id="SVGID_13_" x="632.7" y="6.2" width="201.3" height="207"/>
			</defs>
			<clipPath id="SVGID_14_">
				<use xlink:href="#SVGID_13_"  overflow="visible"/>
			</clipPath>
			<path clip-path="url(#SVGID_14_)" fill="#EEA738" d="M683.1,131.4c-6.5,11.2-18.6,18.8-32.6,18.8c-0.1,0-0.3,0-0.4,0
				c5.3,2.9,11.2,4.5,17.5,4.5c14.9,0,28-9.4,35-23.3L683.1,131.4L683.1,131.4z"/>
		</g>
	</g>
	<g>
		<g>
			<defs>
				<rect id="SVGID_15_" x="632.7" y="6.2" width="201.3" height="207"/>
			</defs>
			<clipPath id="SVGID_16_">
				<use xlink:href="#SVGID_15_"  overflow="visible"/>
			</clipPath>
			<path clip-path="url(#SVGID_16_)" fill="#242C3C" d="M830.3,133.2c-0.8,0-1.4-0.5-1.7-1.3L799,43.6l-29.6,88.2
				c-0.4,0.9-1.3,1.4-2.3,1.2c-0.9-0.4-1.4-1.3-1.2-2.3l31.3-93.3c0.3-0.8,0.9-1.3,1.7-1.3c0.8,0,1.4,0.5,1.7,1.3l31.3,93.3
				c0.4,0.9-0.2,2-1.2,2.3C830.7,133.2,830.5,133.2,830.3,133.2"/>
		</g>
	</g>
	<g>
		<g>
			<defs>
				<rect id="SVGID_17_" x="632.7" y="6.2" width="201.3" height="207"/>
			</defs>
			<clipPath id="SVGID_18_">
				<use xlink:href="#SVGID_17_"  overflow="visible"/>
			</clipPath>
			<path clip-path="url(#SVGID_18_)" fill="#F4C47A" d="M764,131.4c7,14,20.1,23.3,35,23.3c14.9,0,28-9.4,35-23.3H764z"/>
		</g>
	</g>
	<g>
		<g>
			<defs>
				<rect id="SVGID_19_" x="632.7" y="6.2" width="201.3" height="207"/>
			</defs>
			<clipPath id="SVGID_20_">
				<use xlink:href="#SVGID_19_"  overflow="visible"/>
			</clipPath>
			<path clip-path="url(#SVGID_20_)" fill="#EEA738" d="M814.4,131.4c-6.5,11.2-18.6,18.8-32.6,18.8c-0.1,0-0.3,0-0.4,0
				c5.3,2.9,11.2,4.5,17.5,4.5c14.9,0,28-9.4,35-23.3L814.4,131.4L814.4,131.4z"/>
		</g>
	</g>
	<g>
		<g>
			<defs>
				<rect id="SVGID_21_" x="632.7" y="6.2" width="201.3" height="207"/>
			</defs>
			<clipPath id="SVGID_22_">
				<use xlink:href="#SVGID_21_"  overflow="visible"/>
			</clipPath>
			<path clip-path="url(#SVGID_22_)" fill="#242C3C" d="M667.7,39.9c-1,0-1.8-0.8-1.8-1.8V23.4h3.7v14.6
				C669.5,39,668.7,39.9,667.7,39.9"/>
		</g>
	</g>
	<g>
		<g>
			<defs>
				<rect id="SVGID_23_" x="632.7" y="6.2" width="201.3" height="207"/>
			</defs>
			<clipPath id="SVGID_24_">
				<use xlink:href="#SVGID_23_"  overflow="visible"/>
			</clipPath>
			<path clip-path="url(#SVGID_24_)" fill="#242C3C" d="M799,39.9c-1,0-1.8-0.8-1.8-1.8V23.4h3.7v14.6C800.8,39,800,39.9,799,39.9"
				/>
		</g>
	</g>
	<g>
		<g>
			<defs>
				<rect id="SVGID_25_" x="632.7" y="6.2" width="201.3" height="207"/>
			</defs>
			<clipPath id="SVGID_26_">
				<use xlink:href="#SVGID_25_"  overflow="visible"/>
			</clipPath>
			<path clip-path="url(#SVGID_26_)" fill="#242C3C" d="M733.3,55.3c-1.5,0-2.7-1.2-2.7-2.7V8.8c0-1.5,1.2-2.7,2.7-2.7
				c1.5,0,2.7,1.2,2.7,2.7v43.8C736,54.2,734.9,55.3,733.3,55.3"/>
		</g>
	</g>
	<g>
		<g>
			<defs>
				<rect id="SVGID_27_" x="632.7" y="6.2" width="201.3" height="207"/>
			</defs>
			<clipPath id="SVGID_28_">
				<use xlink:href="#SVGID_27_"  overflow="visible"/>
			</clipPath>
			<path clip-path="url(#SVGID_28_)" fill="#FFFFFF" d="M742.4,52.6c0,5-4.1,9.2-9.2,9.2c-5,0-9.2-4.1-9.2-9.2c0-5,4.1-9.2,9.2-9.2
				C738.4,43.6,742.4,47.6,742.4,52.6"/>
		</g>
	</g>
	<g>
		<g>
			<defs>
				<rect id="SVGID_29_" x="632.7" y="6.2" width="201.3" height="207"/>
			</defs>
			<clipPath id="SVGID_30_">
				<use xlink:href="#SVGID_29_"  overflow="visible"/>
			</clipPath>
			<path clip-path="url(#SVGID_30_)" fill="#242C3C" d="M737,52.6c0,2-1.6,3.7-3.7,3.7c-2,0-3.7-1.6-3.7-3.7s1.6-3.7,3.7-3.7
				C735.4,49,737,50.6,737,52.6"/>
		</g>
	</g>
</g>
<rect x="626.7" y="0" fill="none" width="213.3" height="219.3"/>
</svg>
