<svg xmlns="http://www.w3.org/2000/svg" viewBox="0 0 224 112"><style type="text/css">  
	.st0{fill:#F37021;}
	.st1{fill:#00A4E7;}
	.st2{fill:#FFFFFF;}
</style><path class="st0" d="M112 111.5c0 0-103.8-35.3-107.9-36.7C-0.1 73.3 0 70 0 70s0.1-22.5 0.1-25.5c0-3.4 3.7-4.6 3.7-4.6L112 0V111.5z"/><path class="st1" d="M112 111.5c0 0 103.8-35.3 107.9-36.7 4.2-1.5 4.1-4.8 4.1-4.8s-0.1-22.5-0.1-25.5c0-3.4-3.7-4.6-3.7-4.6L112 0V111.5z"/><path class="st2" d="M144.7 63.3c0 0 7.2-2.7 6.5-13.9 0-10.9 0-17.5 0-17.5s0-4.4-1.2-7.2c-1.1-2.2-1.2-3.8-10.2-7.6 -8.9-3.5-21.5-7.9-21.5-7.9v93.1l10.5-3.5V64.6l6.2-0.5 7.7 29.8 9.8-3.3L144.7 63.3zM136.3 55.9l-7.4 0.1 0.1-33.9c0 0 1.8 0.2 5.3 1.3 5.7 1.2 5.8 7.9 5.8 7.9v20.3C140.5 55.4 136.3 55.9 136.3 55.9z"/><polygon class="st2" points="155.4 22.2 155.4 30.2 165.7 34 165.7 86.8 176.4 83.4 176.4 37.7 186.6 41 186.6 33 "/><polygon class="st2" points="218.6 44.1 218.6 48 203.2 45.4 203.2 53.1 216.8 53.6 216.8 59 203.3 59.2 202.9 69 218.5 65.5 218.7 69.7 192.3 78.1 192.3 35.4 "/><polygon class="st2" points="35.6 32.7 28 65.7 20.4 38.4 10.8 41.9 19.9 74.6 36 79.8 46.6 28.7 "/><polygon class="st2" points="54 25.9 53.9 85.6 64.4 89.2 64.7 22 "/><path class="st2" d="M96 10.3c0 0-8.1 3.1-12.8 4.9C71.4 20.1 72 32.9 72 32.9l-0.1 58.6 10.4 3.4V66.2L95 67.1V99l10.4 3.4c0 0 0-73.3 0-82.4C104.8 7.5 96 10.3 96 10.3zM94.8 55.6H82.6l0-24.2c0 0-0.1-5.3 3.3-6.6 3.6-1.4 4.4-2.1 5.5-2.1 1 0 3.5 0.4 3.5 4.1C94.8 30.5 94.8 55.6 94.8 55.6z"/></svg>