<?xml version="1.0" encoding="utf-8"?>
<!-- Generator: Adobe Illustrator 18.1.1, SVG Export Plug-In . SVG Version: 6.00 Build 0)  -->
<svg version="1.1" id="Layer_1" xmlns="http://www.w3.org/2000/svg" xmlns:xlink="http://www.w3.org/1999/xlink" x="0px" y="0px"
	 viewBox="0 0 387.3 195" enable-background="new 0 0 387.3 195" xml:space="preserve">
<g>
	<path fill="#F37021" d="M193.6,191.9c0,0-175.7-59.7-182.7-62.1c-7.1-2.6-6.9-8.1-6.9-8.1s0.1-38.1,0.1-43.1c0-5.8,6.3-7.8,6.3-7.8
		L193.6,3.2V191.9z"/>
	<path fill="#00A4E7" d="M193.6,191.9c0,0,175.7-59.7,182.7-62.1c7.1-2.6,6.9-8.1,6.9-8.1s-0.1-38.1-0.1-43.1c0-5.8-6.3-7.8-6.3-7.8
		L193.6,3.2V191.9z"/>
	<g>
		<path fill="#FFFFFF" d="M249,110.3c0,0,12.2-4.6,10.9-23.5c0-18.4,0-29.6,0-29.6s0-7.5-2.1-12.2c-1.9-3.7-2.1-6.5-17.2-12.9
			c-15.1-6-36.5-13.4-36.5-13.4v157.7l17.7-5.9v-57.9l10.4-0.8l13,50.5l16.7-5.6L249,110.3z M234.8,97.7l-12.5,0.2l0.2-57.3
			c0,0,3.1,0.3,9,2.2c9.7,2,9.9,13.4,9.9,13.4v34.4C241.9,97,234.8,97.7,234.8,97.7z"/>
	</g>
	<polygon fill="#FFFFFF" points="267.1,40.7 267.1,54.3 284.6,60.6 284.6,150.1 302.7,144.3 302.7,66.9 319.9,72.5 319.9,58.9 	"/>
	<polygon fill="#FFFFFF" points="374.1,77.8 374.1,84.4 348,80 348,93.1 371.1,94 371.1,103 348.2,103.3 347.5,120 373.9,114 
		374.2,121.2 329.6,135.3 329.6,63 	"/>
	<polygon fill="#FFFFFF" points="64.3,58.6 51.4,114.5 38.6,68.2 22.4,74.1 37.6,129.5 65,138.2 83,51.8 	"/>
	<polygon fill="#FFFFFF" points="95.5,47.1 95.2,148.1 113,154.2 113.5,40.4 	"/>
	<g>
		<path fill="#FFFFFF" d="M166.6,20.6c0,0-13.7,5.2-21.6,8.2c-20.1,8.4-19,30-19,30l-0.3,99.2l17.5,5.7v-48.4l21.6,1.5v53.9
			l17.5,5.7c0,0,0-124,0-139.5C181.5,15.9,166.6,20.6,166.6,20.6z M164.6,97.2h-20.8l-0.1-40.9c0,0-0.1-8.9,5.6-11.2
			c6.1-2.4,7.5-3.5,9.4-3.5c1.7,0,5.9,0.7,5.9,6.9C164.6,54.8,164.6,97.2,164.6,97.2z"/>
	</g>
</g>
</svg>
